<svg xmlns="http://www.w3.org/2000/svg" viewBox="0 0 23.36 17.69"><title>Fichier 5</title><g id="Calque_2" data-name="Calque 2"><g id="Calque_1-2" data-name="Calque 1"><path d="M4.75,11.69A43.67,43.67,0,0,0,0,7.54c.56-.54,1.41.31,1.76-.71C1.93,6.3,2.65,6,3,5.61c3.39,1,4.57,4.27,7,6.36A62.92,62.92,0,0,1,19.6,0c1.2,1.1,2.31-.08,3.46,0,.6.66.16,1.1-.28,1.52C18.29,5.7,15.27,11,12.14,16.13c-1,1.63-1.39,1.87-3.22,1.24a.74.74,0,0,0-.42,0A50.88,50.88,0,0,0,4.75,11.69Zm7,1.3c.08,0,.19-.06.24-.12s0-.15,0-.23l-.24.2Z"/></g></g></svg>