<svg xmlns="http://www.w3.org/2000/svg" viewBox="0 0 19.79 46"><title>Fichier 4</title><g id="Calque_2" data-name="Calque 2"><g id="Calque_1-2" data-name="Calque 1"><g id="_0pjFv7.tif" data-name="0pjFv7.tif"><path d="M1,36c.81.42,1.12-1.73,2.32-.28a78.85,78.85,0,0,0,5.6,5.69,4.33,4.33,0,0,0,.7.47A2.53,2.53,0,0,0,10,41c0-1.66,0-3.33,0-5q0-15.23,0-30.46C10,4,9.84,2.35,11,1h1c1.16,1.35,1,3,1,4.58q0,17,0,34a5.12,5.12,0,0,0,.38,1.34A13.43,13.43,0,0,0,14.45,40q2.14-2.1,4.24-4.24c.43-.43.87-1.11,1.39-.18.35.62.85,1.48.66,2-.24.71-1.11,1.19-1.68,1.8Q15.53,43.21,12,47H11L1,37Z" transform="translate(-1 -1)"/></g></g></g></svg>